PathFileType	4	(X/Y/Z)	s07c0101.trc
DataRate	CameraRate	NumFrames	NumMarkers	Units	OrigDataRate	OrigDataStartFrame	OrigNumFrames
200	200	6	48	mm	200	250	2000
Frame#	Time	racr			lacr			c7			jug			rlel			rdr			llel			ldr			s2			lic			ric			lasi			rasi			rpsi			lpsi			rgt			lgt			rth1			rth2			rth3			rth4			rlfc			rmfc			rsh1			rsh2			rsh3			rsh4			rlmal			rcal			rtoe			rmt5			lth1			lth2			lth4			lth3			llfc			lmfc			lsh1			lsh2			lsh3			lsh4			llmal			lcal			ltoe			lmt5			SBIKE			LBIKE			RBIKE			
		X1	Y1	Z1	X2	Y2	Z2	X3	Y3	Z3	X4	Y4	Z4	X5	Y5	Z5	X6	Y6	Z6	X7	Y7	Z7	X8	Y8	Z8	X9	Y9	Z9	X10	Y10	Z10	X11	Y11	Z11	X12	Y12	Z12	X13	Y13	Z13	X14	Y14	Z14	X15	Y15	Z15	X16	Y16	Z16	X17	Y17	Z17	X18	Y18	Z18	X19	Y19	Z19	X20	Y20	Z20	X21	Y21	Z21	X22	Y22	Z22	X23	Y23	Z23	X24	Y24	Z24	X25	Y25	Z25	X26	Y26	Z26	X27	Y27	Z27	X28	Y28	Z28	X29	Y29	Z29	X30	Y30	Z30	X31	Y31	Z31	X32	Y32	Z32	X33	Y33	Z33	X34	Y34	Z34	X35	Y35	Z35	X36	Y36	Z36	X37	Y37	Z37	X38	Y38	Z38	X39	Y39	Z39	X40	Y40	Z40	X41	Y41	Z41	X42	Y42	Z42	X43	Y43	Z43	X44	Y44	Z44	X45	Y45	Z45	X46	Y46	Z46	X47	Y47	Z47	X48	Y48	Z48	
250	1.2500	507.729745	1457.422410	-118.542483	484.842440	1458.266387	-368.732326	454.793824	1495.780403	-243.501171	425.668711	1347.028799	-237.373803	533.139757	1125.643881	21.011586	725.001932	915.376257	-73.369176	530.658332	1134.814740	-488.840785	721.393590	911.189941	-417.077144	-112.923602	1231.095074	-231.766616	35.869037	1292.535174	-358.571005	75.941642	1239.089480	-88.422617	67.805870	1218.763984	-356.397770	86.889063	1186.696283	-112.103753	-75.859039	1261.220955	-178.165217	-78.102436	1287.056419	-282.018149	4.367773	1109.495238	-59.485722	-8.685153	1161.406305	-426.786044	79.764366	976.318814	-47.436724	137.482780	909.631000	-54.802144	155.840359	826.012398	-58.097830	167.624630	925.712413	-70.507058	215.485946	696.928377	-94.379038	202.044405	681.029741	-197.047992	160.243816	568.939897	-64.553077	150.118430	481.510034	-81.392050	102.636398	409.058790	-74.425244	165.024850	478.942088	-118.773276	48.345990	281.571251	-75.017795	-24.068392	262.059009	-100.273278	241.791383	146.313258	-125.748687	160.323342	139.935375	-52.181940	93.400638	1098.564976	-429.465008	181.451939	1091.136288	-431.412892	193.937645	1124.383087	-420.284051	254.976678	1040.885738	-429.856437	410.362834	950.639853	-399.644812	403.911584	936.521781	-297.119686	330.988856	824.826868	-412.175114	294.488674	749.732305	-390.216649	223.237062	694.580080	-396.218903	298.424274	752.283885	-348.360708	130.558259	596.590299	-395.822604	52.464662	572.065331	-361.065667	333.118849	500.936244	-360.983620	248.718517	491.240037	-423.655740	-263.352246	978.761546	-236.245415	-82.457194	79.417388	-434.923079	-82.525776	79.224254	-37.510541	
251	1.2550	507.688203	1457.125422	-119.232019	483.730921	1458.108007	-368.992141	454.312743	1495.519949	-243.811777	425.115470	1346.782920	-237.619061	533.385007	1125.622161	20.891360	724.926661	915.216891	-73.339239	528.991798	1134.610629	-489.592715	720.937361	912.079025	-417.436009	-113.803169	1230.599273	-230.065960	39.035085	1296.854234	-370.686801	75.600518	1238.130747	-87.816259	66.048632	1219.250348	-354.601572	86.503893	1186.570724	-111.287092	-76.585024	1260.862189	-176.239424	-79.208714	1286.866551	-280.327188	4.671670	1108.976764	-58.411717	-10.082852	1161.333412	-425.370639	82.026921	976.593678	-47.997682	140.650692	910.829263	-56.350476	160.322324	827.476575	-59.993037	170.293615	927.309650	-72.389777	219.974409	698.866482	-96.747630	205.246274	683.205105	-199.293942	162.742127	571.612227	-66.355084	150.883877	484.329383	-82.904785	102.178835	412.876163	-75.392240	165.506667	481.474302	-120.379419	45.344968	286.707703	-75.092752	-27.651149	268.857382	-100.545548	234.948206	145.917304	-125.674844	153.324237	141.994063	-52.214984	91.856330	1097.827913	-428.508414	179.866225	1090.312197	-430.709765	192.462443	1123.623394	-419.889157	253.314769	1040.044660	-429.349130	409.187758	950.130174	-399.612049	403.108654	935.631535	-297.106364	331.524222	823.314466	-412.394325	296.415372	747.492497	-390.634661	225.922165	691.273335	-396.538104	300.418967	750.009664	-348.741222	134.623443	591.334024	-396.154572	56.700836	565.129778	-360.963240	339.301822	501.128536	-361.141038	255.287394	488.955470	-424.142383	-263.347887	978.751336	-236.144149	-82.463669	79.391882	-434.916378	-82.525299	79.198658	-37.505869	
252	1.2600	507.576534	1456.691717	-119.751844	482.722639	1457.924505	-369.455496	453.865769	1495.032633	-243.994587	424.875476	1346.253025	-237.799531	533.337500	1125.424248	20.875531	724.784619	915.014400	-73.233924	527.245968	1134.220577	-490.347402	720.516380	912.933056	-417.954183	-114.783021	1230.157141	-228.708707	37.442297	1297.007745	-369.287103	75.174767	1237.241899	-87.446099	64.761118	1219.454966	-353.569157	86.226938	1186.441849	-110.375548	-77.473106	1261.167323	-173.506084	-80.353989	1286.649735	-278.669657	5.040232	1108.363934	-57.422183	-11.550936	1161.041046	-423.869330	84.474247	977.001185	-48.551314	144.038662	912.292136	-57.981438	165.128696	829.386155	-62.000399	173.286115	929.339068	-74.012971	224.735940	700.636314	-99.091917	208.260728	685.738098	-201.440546	165.460904	574.525630	-68.037611	151.848057	487.374373	-84.451519	101.873799	416.855318	-76.279619	166.175398	484.156851	-121.942649	42.440243	291.862089	-75.298907	-31.048783	275.954134	-100.832076	228.152951	145.612213	-125.634640	146.500864	144.357469	-52.270761	90.289858	1096.798163	-427.535815	178.287200	1089.057495	-430.025654	190.951086	1122.397848	-419.437026	251.534412	1038.641405	-428.664310	407.624700	948.691652	-399.604438	401.985157	933.998955	-297.252832	331.641529	820.943567	-412.677808	297.831912	744.386780	-391.168043	228.236880	687.067267	-396.914941	301.820007	746.851036	-349.358756	137.931340	585.829030	-398.788005	61.149791	556.913548	-361.918470	345.184613	501.041025	-361.487901	261.490441	486.299629	-424.692326	-263.340790	978.722744	-235.989354	-82.463430	79.370221	-434.923245	-82.529724	79.160789	-37.521492	
253	1.2650	507.422142	1456.022810	-120.184030	481.582249	1457.540179	-369.617745	453.386650	1494.419938	-244.093830	424.306272	1345.656555	-237.875603	533.043033	1125.040583	20.936296	724.516335	914.780727	-73.079507	525.539848	1133.703346	-491.015502	719.874972	913.689374	-418.290180	-115.554436	1229.399099	-226.926697	35.910051	1297.115233	-367.887588	74.764765	1236.699229	-86.253600	63.311466	1219.437598	-352.300695	85.944988	1186.243513	-109.355303	-78.111763	1260.497589	-171.609988	-81.519885	1286.209986	-276.797323	5.502439	1107.685685	-56.407307	-13.047115	1160.682501	-422.345636	87.164083	977.538312	-49.040162	147.637369	913.843526	-59.634970	170.279768	831.307645	-64.279440	176.458869	931.660851	-75.556773	230.068326	703.019752	-101.337292	211.754062	688.091433	-203.814338	168.289006	577.325627	-69.823328	152.871718	490.390252	-85.876792	101.622971	420.974919	-77.175713	166.904850	486.908427	-123.463869	39.700646	297.176125	-75.491713	-34.129236	283.273143	-101.161328	221.357840	145.581521	-125.565621	139.692204	146.942773	-52.294272	88.711692	1095.521208	-426.637287	176.595864	1087.408045	-429.459893	189.506109	1120.750613	-418.978601	249.585618	1036.706259	-428.297507	405.752739	946.510686	-399.803975	400.510799	931.506179	-297.492931	331.376905	817.706777	-413.050715	298.791484	740.557823	-391.710846	230.080050	682.161681	-397.793854	302.789796	743.020242	-349.987001	141.243684	579.212387	-399.103444	65.304258	547.951375	-362.289304	350.876022	500.731316	-361.656093	267.748735	483.361191	-424.954940	-263.338730	978.696676	-235.826422	-82.481270	79.337080	-434.908028	-82.544983	79.139202	-37.493797	
254	1.2700	507.258885	1455.217639	-120.450119	480.421055	1457.048525	-369.879727	452.893510	1493.742068	-244.228469	423.599599	1345.020305	-237.962313	532.429314	1124.414918	21.052019	724.182767	914.505380	-72.881335	523.615309	1133.119818	-491.854366	719.126162	914.345161	-418.681392	-116.371735	1228.636700	-225.104624	34.329763	1297.171873	-366.567372	74.331038	1236.290941	-85.014446	62.075102	1219.583579	-351.417971	85.676827	1185.926186	-108.489756	-78.652886	1259.765066	-169.851513	-82.737630	1285.637508	-274.819783	6.138286	1106.854541	-55.338153	-14.592971	1160.146535	-420.754378	90.011284	978.193744	-49.448350	151.301714	915.622590	-61.287215	175.428811	833.490364	-66.625264	179.783849	933.967162	-77.091460	234.839411	705.223796	-103.801944	215.318648	690.532879	-206.105779	170.828540	580.257892	-71.753865	154.585997	493.777088	-87.088523	101.528044	425.134012	-78.083674	168.013256	489.641727	-124.848428	37.148175	302.809725	-75.498357	-37.031882	290.689338	-101.413033	214.614966	146.040422	-125.534485	133.050896	149.865919	-52.351406	87.060092	1094.010388	-425.966740	174.962455	1085.376644	-428.978277	188.078322	1118.700923	-418.652319	247.729961	1034.213830	-427.970166	403.623622	943.434801	-400.114656	398.738246	928.219381	-297.964723	330.607254	813.674056	-413.632745	299.299933	735.956564	-392.286377	231.473853	676.478087	-398.314715	303.294761	738.461798	-350.420311	144.134980	570.107848	-400.440447	69.261804	538.324401	-362.582106	356.197704	500.048589	-362.091002	273.511329	480.303133	-425.683061	-263.315024	978.628363	-235.658377	-82.492457	79.278739	-434.910144	-82.533039	79.112124	-37.498480	
255	1.2750	507.058402	1454.285199	-120.747464	479.305334	1456.597052	-370.285110	452.371138	1493.034294	-244.289993	422.916663	1344.337402	-238.136013	531.558244	1123.715520	21.312797	723.742272	914.294068	-72.658114	521.717447	1132.451421	-492.538873	718.282003	914.858662	-419.001150	-117.121536	1227.813715	-223.346909	32.539707	1296.988263	-365.151787	73.852397	1236.113498	-84.101296	60.749196	1219.518702	-350.491056	85.385265	1185.650140	-107.610050	-78.443302	1258.188502	-169.006180	-83.971609	1284.614997	-272.923052	6.603737	1106.217499	-54.328582	-16.080222	1159.585586	-419.183328	92.911632	978.902667	-50.029755	155.024313	917.610557	-62.802246	180.558128	835.809276	-68.956600	183.081684	936.526578	-78.687530	239.720564	707.299091	-105.942016	219.073702	693.008224	-208.200934	173.741000	583.262867	-73.343595	155.761401	496.910197	-88.349133	101.466217	429.444745	-78.891965	169.127680	492.492772	-126.211042	34.828950	308.590058	-75.543896	-39.642829	298.350453	-101.590437	207.946842	146.704947	-125.559814	126.649644	153.113697	-52.432574	85.481652	1092.402507	-425.285519	173.267230	1083.144654	-428.644753	186.678123	1116.394321	-418.394026	245.756954	1031.217070	-427.975729	401.155453	939.738710	-400.579523	396.682523	924.326107	-298.675752	329.518051	808.864180	-414.135390	299.505660	730.628608	-392.875305	232.661022	670.149349	-398.769167	303.406492	733.242262	-351.043315	147.403059	564.075134	-398.841502	73.184407	527.994694	-362.969224	361.245850	499.070500	-362.511915	279.118775	476.643423	-426.041538	-263.306167	978.583495	-235.562184	-82.494413	79.259162	-434.891971	-82.517038	79.075686	-37.487132	
